<?xml version="1.0" encoding="utf-8"?>
<!-- Generator: Adobe Illustrator 15.1.0, SVG Export Plug-In  -->
<!DOCTYPE svg PUBLIC "-//W3C//DTD SVG 1.1//EN" "http://www.w3.org/Graphics/SVG/1.1/DTD/svg11.dtd" [
	<!ENTITY ns_flows "http://ns.adobe.com/Flows/1.0/">
]>
<svg version="1.1"
	 xmlns="http://www.w3.org/2000/svg" xmlns:xlink="http://www.w3.org/1999/xlink" xmlns:a="http://ns.adobe.com/AdobeSVGViewerExtensions/3.0/"
	 x="0px" y="0px" width="256px" height="256px" viewBox="0 0 256 256" enable-background="new 0 0 256 256" xml:space="preserve">
<defs>
</defs>
<rect id="_x3C_Slice_x3E__22_" fill="none" width="256" height="256"/>
<g>
	<g>
		<path fill="#2E2E2E" d="M51.036,168.012v7.347H36.522v54.615h-7.257v-54.615h-14.16v-7.347H51.036z"/>
		<path fill="#2E2E2E" d="M61.478,167.923h12.036c8.408,0,14.603,6.196,14.603,14.605v9.206c0,3.806-3.54,10.71-9.292,11.153
			c6.107,0.62,9.558,7.258,9.558,11.242v15.844h-7.257v-15.844c0-4.249-5.133-7.524-9.204-7.524h-9.027v23.368h-7.168v-56.208
			C55.725,170.313,58.026,167.923,61.478,167.923z M62.894,175.27v23.988h9.027c3.982,0,8.938-3.275,8.938-7.523v-9.206
			c0-3.983-3.186-7.258-7.346-7.258H62.894z"/>
		<path fill="#2E2E2E" d="M123.603,175.358l-20.797,0.177v19.031h19.913v7.347h-19.913v13.277c0,3.983,3.274,7.436,7.345,7.436
			h13.452v7.347H110.15c-7.965,0-14.691-6.904-14.691-14.782v-41.426c0-3.363,2.92-5.753,5.93-5.753h22.213V175.358z"/>
		<path fill="#2E2E2E" d="M156.435,208.818h-14.868c-3.451,13.455-4.602,17.88-5.398,21.155h-7.699l14.691-57.712
			c1.062-3.187,3.628-4.957,5.93-4.957c2.212,0,4.956,1.947,5.752,4.78l14.957,57.89h-7.876L156.435,208.818z M154.576,201.56
			l-4.514-22.041l-0.619-6.019h-0.708l-0.708,6.019c-1.77,7.081-3.009,14.959-4.69,22.041H154.576z"/>
		<path fill="#2E2E2E" d="M200.861,168.012v7.347h-14.514v54.615h-7.257v-54.615h-14.16v-7.347H200.861z"/>
		<path fill="#2E2E2E" d="M201.48,182.44c0-9.914,8.23-14.959,16.638-14.959s16.727,5.045,16.727,14.959v33.017
			c0,10.002-8.319,15.048-16.727,15.048s-16.638-5.045-16.638-15.048V182.44z M208.648,215.457c0,5.045,4.69,7.701,9.47,7.701
			s9.381-2.655,9.381-7.701V182.44c0-4.957-4.602-7.612-9.381-7.612s-9.47,2.655-9.47,7.612V215.457z"/>
	</g>
</g>
<path fill="#FFFFFF" d="M80.34,118.999c18.27,9.35,40.65,2.122,50-16.148c9.348-18.262,2.117-40.648-16.145-49.993
	c-18.266-9.349-40.651-2.117-49.999,16.146C54.852,87.267,62.077,109.65,80.34,118.999z"/>
<path fill="#FFFFFF" d="M124.922,90.765c18.265,9.35,40.65,2.117,49.996-16.147c9.35-18.261,2.118-40.646-16.146-49.994
	c-18.263-9.349-40.65-2.12-49.995,16.145C99.428,59.034,106.657,81.415,124.922,90.765z"/>
<path fill="#FFFFFF" d="M163.735,141.955c16.575-12.085,20.225-35.325,8.133-51.902c-12.087-16.58-35.323-20.225-51.904-8.14
	c-16.577,12.086-20.225,35.328-8.137,51.907C123.914,150.398,147.15,154.042,163.735,141.955z"/>
<path opacity="0.5" fill="#D9E000" d="M77.265,117.997c17.71,10.357,40.466,4.403,50.833-13.303
	c10.359-17.708,4.405-40.465-13.301-50.828c-17.709-10.362-40.462-4.409-50.833,13.297C53.607,84.875,59.563,107.628,77.265,117.997
	z"/>
<linearGradient id="SVGID_4_" gradientUnits="userSpaceOnUse" x1="77.5322" y1="123.0791" x2="77.5322" y2="48.7783">
	<stop  offset="0" style="stop-color:#ADE05A"/>
	<stop  offset="1" style="stop-color:#D9E000"/>
</linearGradient>
<path opacity="0.5" fill="url(#SVGID_4_)" d="M96.188,123.079l-0.31-74.3c-20.515,0.088-37.081,16.79-37,37.305
	C58.969,106.6,75.671,123.167,96.188,123.079z"/>
<path opacity="0.5" fill="#0ABF73" d="M124.922,90.765c18.265,9.35,40.65,2.117,49.996-16.147
	c9.35-18.261,2.118-40.646-16.146-49.994c-18.263-9.349-40.65-2.12-49.995,16.145C99.428,59.034,106.657,81.415,124.922,90.765z"/>
<linearGradient id="SVGID_5_" gradientUnits="userSpaceOnUse" x1="108.7773" y1="47.5767" x2="179.0068" y2="47.5767">
	<stop  offset="0" style="stop-color:#C3E5B4"/>
	<stop  offset="1" style="stop-color:#0ABF73"/>
</linearGradient>
<path opacity="0.5" fill="url(#SVGID_5_)" d="M108.777,40.769l66.141,33.849c9.35-18.261,2.118-40.646-16.146-49.994
	C140.51,15.275,118.125,22.503,108.777,40.769z"/>
<linearGradient id="SVGID_6_" gradientUnits="userSpaceOnUse" x1="104.6943" y1="111.9351" x2="179.0024" y2="111.9351">
	<stop  offset="0" style="stop-color:#00DB7F"/>
	<stop  offset="1" style="stop-color:#00AAFF"/>
</linearGradient>
<path opacity="0.5" fill="url(#SVGID_6_)" d="M163.735,141.955c16.575-12.085,20.225-35.325,8.133-51.902
	c-12.087-16.58-35.323-20.225-51.904-8.14c-16.577,12.086-20.225,35.328-8.137,51.907
	C123.914,150.398,147.15,154.042,163.735,141.955z"/>
<linearGradient id="SVGID_7_" gradientUnits="userSpaceOnUse" x1="201.5425" y1="221.0063" x2="267.9346" y2="221.0063" gradientTransform="matrix(0.9994 0.0349 -0.0349 0.9994 -81.3303 -109.8796)">
	<stop  offset="0" style="stop-color:#00DB7F"/>
	<stop  offset="1" style="stop-color:#00AAFF"/>
</linearGradient>
<path opacity="0.5" fill="url(#SVGID_7_)" d="M171.868,90.053l-60.041,43.767c12.087,16.579,35.323,20.223,51.908,8.135
	C180.31,129.87,183.96,106.63,171.868,90.053z"/>
<rect display="none" opacity="0.8" fill="#5DFCA7" width="257" height="256"/>
<text transform="matrix(1.0258 0 0 1 39.6445 79)" display="none"><tspan x="0" y="0" display="inline" font-family="'MyriadPro-Regular'" font-size="26.5333">ICONS </tspan><tspan x="0" y="31.84" display="inline" font-family="'MyriadPro-Regular'" font-size="26.5333">FOR </tspan><tspan x="0" y="63.68" display="inline" font-family="'MyriadPro-Regular'" font-size="26.5333">WORDPRESS</tspan></text>
</svg>
